<?xml version="1.0" standalone="no"?>
<!DOCTYPE svg PUBLIC "-//W3C//DTD SVG 20010904//EN"
 "http://www.w3.org/TR/2001/REC-SVG-20010904/DTD/svg10.dtd">
<svg version="1.0" xmlns="http://www.w3.org/2000/svg"
 width="1064.000000pt" height="1008.000000pt" viewBox="0 0 1064.000000 1008.000000"
 preserveAspectRatio="xMidYMid meet">

<g transform="translate(0.000000,1008.000000) scale(0.100000,-0.100000)"
fill="#000000" stroke="none">
<path d="M5080 9923 c-1058 -61 -2058 -459 -2891 -1154 -145 -121 -417 -389
-545 -539 -494 -574 -850 -1262 -1037 -2005 -113 -444 -153 -813 -144 -1297 5
-282 17 -412 58 -673 88 -547 310 -1159 604 -1660 215 -368 451 -672 769 -991
216 -217 312 -301 505 -448 576 -437 1219 -739 1891 -890 972 -218 1936 -145
2850 216 1584 627 2744 2027 3054 3688 94 502 103 1068 26 1587 -146 984 -613
1942 -1291 2647 -951 989 -2229 1535 -3567 1524 -125 -1 -252 -3 -282 -5z
m431 -379 c26 -8 71 -29 100 -48 253 -153 796 -486 844 -516 58 -37 1312 -802
1785 -1090 791 -481 765 -465 810 -524 51 -67 76 -126 89 -206 15 -90 15
-4109 0 -4199 -12 -78 -46 -152 -96 -210 -27 -32 -505 -356 -1728 -1171 -1525
-1016 -1697 -1128 -1758 -1145 -78 -21 -177 -17 -247 11 -45 18 -263 156 -795
504 -154 101 -327 213 -385 250 -58 36 -202 130 -320 207 -118 77 -586 380
-1040 673 -1134 733 -1044 672 -1095 741 -24 32 -52 80 -62 106 -17 46 -18
136 -18 2163 l0 2115 32 68 c45 96 111 155 299 268 277 168 626 380 714 434
47 29 299 183 560 342 261 160 610 372 775 473 297 181 1068 649 1155 700 125
73 258 92 381 54z"/>
<path d="M5317 9200 c-63 -34 -890 -535 -2127 -1290 -327 -199 -732 -446 -900
-547 -168 -101 -316 -195 -330 -209 l-25 -24 -3 -2025 c-2 -1694 0 -2031 12
-2058 11 -26 59 -61 262 -192 327 -209 1390 -895 1619 -1045 200 -131 864
-562 1311 -851 192 -125 300 -189 318 -189 18 0 430 269 1357 888 l1332 887
-638 3 c-477 1 -642 5 -653 14 -12 10 -13 47 -10 218 4 174 8 213 25 260 68
185 173 308 327 384 130 64 150 66 588 66 441 0 451 -1 597 -70 67 -32 99 -56
160 -118 91 -93 132 -160 164 -269 13 -46 25 -85 28 -87 3 -3 18 6 34 18 l30
24 3 2070 2 2071 -22 24 c-13 14 -178 119 -368 234 -190 116 -457 279 -595
363 -137 84 -342 209 -455 278 -113 69 -295 180 -405 247 -110 67 -294 180
-410 250 -115 71 -300 183 -410 250 -110 67 -319 195 -465 284 -157 95 -275
161 -290 161 -14 0 -42 -9 -63 -20z m-1782 -1697 c200 -60 340 -252 337 -463
-1 -134 -53 -252 -150 -342 -103 -97 -202 -132 -352 -126 -89 3 -104 7 -176
42 -299 148 -365 530 -134 767 123 126 308 173 475 122z m390 -1106 c226 -80
378 -247 429 -474 12 -53 16 -124 16 -272 0 -195 -1 -200 -22 -215 -20 -14
-128 -16 -960 -16 -838 0 -938 2 -952 16 -23 23 -23 374 0 477 61 275 287 474
579 511 17 2 210 3 430 2 l400 -1 80 -28z m1599 -340 c47 -26 86 -94 86 -146
-1 -91 5 -86 -578 -522 -298 -222 -541 -408 -541 -414 0 -5 220 -170 490 -365
270 -195 501 -368 515 -383 85 -100 29 -257 -102 -282 -55 -10 -103 11 -209
88 -116 86 -640 465 -897 650 -97 70 -188 141 -202 158 -69 81 -57 209 25 285
40 37 1194 905 1241 934 46 28 121 26 172 -3z m331 -1381 c37 -20 909 -678
948 -715 26 -24 43 -53 53 -89 17 -59 13 -94 -18 -165 -22 -49 -26 -52 -910
-775 -49 -40 -101 -77 -114 -83 -43 -16 -104 -10 -145 13 -54 30 -94 111 -85
170 13 83 -18 54 548 514 167 136 304 250 306 254 1 4 -172 138 -385 298 -213
160 -398 301 -410 314 -34 37 -49 107 -34 160 30 99 157 153 246 104z m2062
-118 c320 -105 417 -530 174 -768 -102 -100 -252 -152 -379 -131 -152 25 -284
116 -348 243 -135 266 -5 573 281 664 66 21 195 17 272 -8z"/>
</g>
</svg>
